<svg xmlns="http://www.w3.org/2000/svg" style="display:none" aria-hidden="true">
  <symbol id="lk-i-check" viewBox="0 0 24 24" fill="none" stroke="currentColor" stroke-width="2" stroke-linecap="square" stroke-linejoin="miter"><path fill="none" stroke="currentColor" stroke-linecap="square" stroke-linejoin="miter" stroke-width="2" d="m5 12l5 5L20 7"/></symbol>
  <symbol id="lk-i-alert-triangle" viewBox="0 0 24 24" fill="none" stroke="currentColor" stroke-width="2" stroke-linecap="square" stroke-linejoin="miter"><path fill="none" stroke="currentColor" stroke-linecap="square" stroke-linejoin="miter" stroke-width="2" d="M12 9v4m-1.637-9.409L2.257 17.125a1.914 1.914 0 0 0 1.636 2.871h16.214a1.914 1.914 0 0 0 1.636-2.87L13.637 3.59a1.914 1.914 0 0 0-3.274 0M12 16h.01"/></symbol>
  <symbol id="lk-i-circle" viewBox="0 0 24 24" fill="none" stroke="currentColor" stroke-width="2" stroke-linecap="square" stroke-linejoin="miter"><path fill="none" stroke="currentColor" stroke-linecap="square" stroke-linejoin="miter" stroke-width="2" d="M3 12a9 9 0 1 0 18 0a9 9 0 1 0-18 0"/></symbol>
  <symbol id="lk-i-info-circle" viewBox="0 0 24 24" fill="none" stroke="currentColor" stroke-width="2" stroke-linecap="square" stroke-linejoin="miter"><g fill="none" stroke="currentColor" stroke-linecap="square" stroke-linejoin="miter" stroke-width="2"><path d="M3 12a9 9 0 1 0 18 0a9 9 0 0 0-18 0m9-3h.01"/><path d="M11 12h1v4h1"/></g></symbol>
  <symbol id="lk-i-x" viewBox="0 0 24 24" fill="none" stroke="currentColor" stroke-width="2" stroke-linecap="square" stroke-linejoin="miter"><path fill="none" stroke="currentColor" stroke-linecap="square" stroke-linejoin="miter" stroke-width="2" d="M18 6L6 18M6 6l12 12"/></symbol>
  <symbol id="lk-i-chevron-right" viewBox="0 0 24 24" fill="none" stroke="currentColor" stroke-width="2" stroke-linecap="square" stroke-linejoin="miter"><path fill="none" stroke="currentColor" stroke-linecap="square" stroke-linejoin="miter" stroke-width="2" d="m9 6l6 6l-6 6"/></symbol>
  <symbol id="lk-i-chevron-down" viewBox="0 0 24 24" fill="none" stroke="currentColor" stroke-width="2" stroke-linecap="square" stroke-linejoin="miter"><path fill="none" stroke="currentColor" stroke-linecap="square" stroke-linejoin="miter" stroke-width="2" d="m6 9l6 6l6-6"/></symbol>
  <symbol id="lk-i-chevron-left" viewBox="0 0 24 24" fill="none" stroke="currentColor" stroke-width="2" stroke-linecap="square" stroke-linejoin="miter"><path fill="none" stroke="currentColor" stroke-linecap="square" stroke-linejoin="miter" stroke-width="2" d="m15 6l-6 6l6 6"/></symbol>
  <symbol id="lk-i-chevron-up" viewBox="0 0 24 24" fill="none" stroke="currentColor" stroke-width="2" stroke-linecap="square" stroke-linejoin="miter"><path fill="none" stroke="currentColor" stroke-linecap="square" stroke-linejoin="miter" stroke-width="2" d="m6 15l6-6l6 6"/></symbol>
  <symbol id="lk-i-arrow-right" viewBox="0 0 24 24" fill="none" stroke="currentColor" stroke-width="2" stroke-linecap="square" stroke-linejoin="miter"><path fill="none" stroke="currentColor" stroke-linecap="square" stroke-linejoin="miter" stroke-width="2" d="M5 12h14m-6 6l6-6m-6-6l6 6"/></symbol>
  <symbol id="lk-i-arrow-left" viewBox="0 0 24 24" fill="none" stroke="currentColor" stroke-width="2" stroke-linecap="square" stroke-linejoin="miter"><path fill="none" stroke="currentColor" stroke-linecap="square" stroke-linejoin="miter" stroke-width="2" d="M5 12h14M5 12l6 6m-6-6l6-6"/></symbol>
  <symbol id="lk-i-plus" viewBox="0 0 24 24" fill="none" stroke="currentColor" stroke-width="2" stroke-linecap="square" stroke-linejoin="miter"><path fill="none" stroke="currentColor" stroke-linecap="square" stroke-linejoin="miter" stroke-width="2" d="M12 5v14m-7-7h14"/></symbol>
  <symbol id="lk-i-minus" viewBox="0 0 24 24" fill="none" stroke="currentColor" stroke-width="2" stroke-linecap="square" stroke-linejoin="miter"><path fill="none" stroke="currentColor" stroke-linecap="square" stroke-linejoin="miter" stroke-width="2" d="M5 12h14"/></symbol>
  <symbol id="lk-i-search" viewBox="0 0 24 24" fill="none" stroke="currentColor" stroke-width="2" stroke-linecap="square" stroke-linejoin="miter"><path fill="none" stroke="currentColor" stroke-linecap="square" stroke-linejoin="miter" stroke-width="2" d="M3 10a7 7 0 1 0 14 0a7 7 0 1 0-14 0m18 11l-6-6"/></symbol>
  <symbol id="lk-i-menu-2" viewBox="0 0 24 24" fill="none" stroke="currentColor" stroke-width="2" stroke-linecap="square" stroke-linejoin="miter"><path fill="none" stroke="currentColor" stroke-linecap="square" stroke-linejoin="miter" stroke-width="2" d="M4 6h16M4 12h16M4 18h16"/></symbol>
  <symbol id="lk-i-external-link" viewBox="0 0 24 24" fill="none" stroke="currentColor" stroke-width="2" stroke-linecap="square" stroke-linejoin="miter"><path fill="none" stroke="currentColor" stroke-linecap="square" stroke-linejoin="miter" stroke-width="2" d="M12 6H6a2 2 0 0 0-2 2v10a2 2 0 0 0 2 2h10a2 2 0 0 0 2-2v-6m-7 1l9-9m-5 0h5v5"/></symbol>
  <symbol id="lk-i-dots" viewBox="0 0 24 24" fill="none" stroke="currentColor" stroke-width="2" stroke-linecap="square" stroke-linejoin="miter"><path fill="none" stroke="currentColor" stroke-linecap="square" stroke-linejoin="miter" stroke-width="2" d="M4 12a1 1 0 1 0 2 0a1 1 0 1 0-2 0m7 0a1 1 0 1 0 2 0a1 1 0 1 0-2 0m7 0a1 1 0 1 0 2 0a1 1 0 1 0-2 0"/></symbol>
  <symbol id="lk-i-trash" viewBox="0 0 24 24" fill="none" stroke="currentColor" stroke-width="2" stroke-linecap="square" stroke-linejoin="miter"><path fill="none" stroke="currentColor" stroke-linecap="square" stroke-linejoin="miter" stroke-width="2" d="M4 7h16m-10 4v6m4-6v6M5 7l1 12a2 2 0 0 0 2 2h8a2 2 0 0 0 2-2l1-12M9 7V4a1 1 0 0 1 1-1h4a1 1 0 0 1 1 1v3"/></symbol>
  <symbol id="lk-i-settings" viewBox="0 0 24 24" fill="none" stroke="currentColor" stroke-width="2" stroke-linecap="square" stroke-linejoin="miter"><g fill="none" stroke="currentColor" stroke-linecap="square" stroke-linejoin="miter" stroke-width="2"><path d="M10.325 4.317c.426-1.756 2.924-1.756 3.35 0a1.724 1.724 0 0 0 2.573 1.066c1.543-.94 3.31.826 2.37 2.37a1.724 1.724 0 0 0 1.065 2.572c1.756.426 1.756 2.924 0 3.35a1.724 1.724 0 0 0-1.066 2.573c.94 1.543-.826 3.31-2.37 2.37a1.724 1.724 0 0 0-2.572 1.065c-.426 1.756-2.924 1.756-3.35 0a1.724 1.724 0 0 0-2.573-1.066c-1.543.94-3.31-.826-2.37-2.37a1.724 1.724 0 0 0-1.065-2.572c-1.756-.426-1.756-2.924 0-3.35a1.724 1.724 0 0 0 1.066-2.573c-.94-1.543.826-3.31 2.37-2.37c1 .608 2.296.07 2.572-1.065"/><path d="M9 12a3 3 0 1 0 6 0a3 3 0 0 0-6 0"/></g></symbol>
  <symbol id="lk-i-download" viewBox="0 0 24 24" fill="none" stroke="currentColor" stroke-width="2" stroke-linecap="square" stroke-linejoin="miter"><path fill="none" stroke="currentColor" stroke-linecap="square" stroke-linejoin="miter" stroke-width="2" d="M4 17v2a2 2 0 0 0 2 2h12a2 2 0 0 0 2-2v-2M7 11l5 5l5-5m-5-7v12"/></symbol>
  <symbol id="lk-i-upload" viewBox="0 0 24 24" fill="none" stroke="currentColor" stroke-width="2" stroke-linecap="square" stroke-linejoin="miter"><path fill="none" stroke="currentColor" stroke-linecap="square" stroke-linejoin="miter" stroke-width="2" d="M4 17v2a2 2 0 0 0 2 2h12a2 2 0 0 0 2-2v-2M7 9l5-5l5 5m-5-5v12"/></symbol>
  <symbol id="lk-i-calendar" viewBox="0 0 24 24" fill="none" stroke="currentColor" stroke-width="2" stroke-linecap="square" stroke-linejoin="miter"><path fill="none" stroke="currentColor" stroke-linecap="square" stroke-linejoin="miter" stroke-width="2" d="M4 7a2 2 0 0 1 2-2h12a2 2 0 0 1 2 2v12a2 2 0 0 1-2 2H6a2 2 0 0 1-2-2zm12-4v4M8 3v4m-4 4h16m-9 4h1m0 0v3"/></symbol>
  <symbol id="lk-i-user" viewBox="0 0 24 24" fill="none" stroke="currentColor" stroke-width="2" stroke-linecap="square" stroke-linejoin="miter"><path fill="none" stroke="currentColor" stroke-linecap="square" stroke-linejoin="miter" stroke-width="2" d="M8 7a4 4 0 1 0 8 0a4 4 0 0 0-8 0M6 21v-2a4 4 0 0 1 4-4h4a4 4 0 0 1 4 4v2"/></symbol>
  <symbol id="lk-i-star" viewBox="0 0 24 24" fill="none" stroke="currentColor" stroke-width="2" stroke-linecap="square" stroke-linejoin="miter"><path fill="none" stroke="currentColor" stroke-linecap="square" stroke-linejoin="miter" stroke-width="2" d="m12 17.75l-6.172 3.245l1.179-6.873l-5-4.867l6.9-1l3.086-6.253l3.086 6.253l6.9 1l-5 4.867l1.179 6.873z"/></symbol>
  <symbol id="lk-i-eye" viewBox="0 0 24 24" fill="none" stroke="currentColor" stroke-width="2" stroke-linecap="square" stroke-linejoin="miter"><g fill="none" stroke="currentColor" stroke-linecap="square" stroke-linejoin="miter" stroke-width="2"><path d="M10 12a2 2 0 1 0 4 0a2 2 0 0 0-4 0"/><path d="M21 12q-3.6 6-9 6t-9-6q3.6-6 9-6t9 6"/></g></symbol>
  <symbol id="lk-i-edit" viewBox="0 0 24 24" fill="none" stroke="currentColor" stroke-width="2" stroke-linecap="square" stroke-linejoin="miter"><g fill="none" stroke="currentColor" stroke-linecap="square" stroke-linejoin="miter" stroke-width="2"><path d="M7 7H6a2 2 0 0 0-2 2v9a2 2 0 0 0 2 2h9a2 2 0 0 0 2-2v-1"/><path d="M20.385 6.585a2.1 2.1 0 0 0-2.97-2.97L9 12v3h3zM16 5l3 3"/></g></symbol>
  <symbol id="lk-i-copy" viewBox="0 0 24 24" fill="none" stroke="currentColor" stroke-width="2" stroke-linecap="square" stroke-linejoin="miter"><g fill="none" stroke="currentColor" stroke-linecap="square" stroke-linejoin="miter" stroke-width="2"><path d="M7 9.667A2.667 2.667 0 0 1 9.667 7h8.666A2.667 2.667 0 0 1 21 9.667v8.666A2.667 2.667 0 0 1 18.333 21H9.667A2.667 2.667 0 0 1 7 18.333z"/><path d="M4.012 16.737A2 2 0 0 1 3 15V5c0-1.1.9-2 2-2h10c.75 0 1.158.385 1.5 1"/></g></symbol>
  <symbol id="lk-i-filter" viewBox="0 0 24 24" fill="none" stroke="currentColor" stroke-width="2" stroke-linecap="square" stroke-linejoin="miter"><path fill="none" stroke="currentColor" stroke-linecap="square" stroke-linejoin="miter" stroke-width="2" d="M4 4h16v2.172a2 2 0 0 1-.586 1.414L15 12v7l-6 2v-8.5L4.52 7.572A2 2 0 0 1 4 6.227z"/></symbol>
  <symbol id="lk-i-sort-ascending" viewBox="0 0 24 24" fill="none" stroke="currentColor" stroke-width="2" stroke-linecap="square" stroke-linejoin="miter"><path fill="none" stroke="currentColor" stroke-linecap="square" stroke-linejoin="miter" stroke-width="2" d="M4 6h7m-7 6h7m-7 6h9m2-9l3-3l3 3m-3-3v12"/></symbol>
  <symbol id="lk-i-home" viewBox="0 0 24 24" fill="none" stroke="currentColor" stroke-width="2" stroke-linecap="square" stroke-linejoin="miter"><g fill="none" stroke="currentColor" stroke-linecap="square" stroke-linejoin="miter" stroke-width="2"><path d="M5 12H3l9-9l9 9h-2M5 12v7a2 2 0 0 0 2 2h10a2 2 0 0 0 2-2v-7"/><path d="M9 21v-6a2 2 0 0 1 2-2h2a2 2 0 0 1 2 2v6"/></g></symbol>
</svg>
